<?xml version="1.0" encoding="utf-8"?>
<!-- Generator: Adobe Illustrator 23.0.0, SVG Export Plug-In . SVG Version: 6.00 Build 0)  -->
<svg version="1.1" xmlns="http://www.w3.org/2000/svg" xmlns:xlink="http://www.w3.org/1999/xlink" x="0px" y="0px"
	 viewBox="0 0 3196.8 1788.48" style="enable-background:new 0 0 3196.8 1788.48;" xml:space="preserve">
<style type="text/css">
	.st0{fill:none;}
	.st1{fill:#EEAC5A;}
	.st2{fill:#E70E02;}
	.st3{fill:#EC7505;}
	.st4{fill:#E89005;}
	.st5{fill:url(#SVGID_1_);}
	.st6{fill:url(#SVGID_2_);}
	.st7{fill:url(#SVGID_3_);}
	.st8{opacity:0.15;}
	.st9{opacity:0.41;fill:#FFFFFF;}
	.st10{opacity:0.4;fill:#FFFFFF;}
	.st11{display:none;}
	.st12{display:inline;fill:#D84012;stroke:#000000;stroke-width:7;stroke-miterlimit:10;}
	.st13{font-family:'AgencyFB-Reg';}
	.st14{font-size:280px;}
	.st15{letter-spacing:58;}
	.st16{display:inline;fill:#E70E02;}
	.st17{display:inline;fill:#EEAC5A;}
	.st18{display:inline;fill:#F42B03;}
	.st19{display:inline;fill:#D84A05;}
	.st20{display:inline;fill:#EC7505;}
	.st21{display:inline;fill:#E89005;}
	.st22{fill:none;stroke:#559DFF;stroke-width:30;stroke-linecap:square;stroke-linejoin:round;stroke-miterlimit:10;}
	.st23{fill:none;stroke:#0425AD;stroke-width:30;stroke-linecap:square;stroke-linejoin:round;stroke-miterlimit:10;}
	.st24{fill:#0E34B7;}
	.st25{fill:#4592AF;}
	.st26{fill:url(#SVGID_4_);}
	.st27{fill:url(#SVGID_5_);}
	.st28{fill:url(#SVGID_6_);}
	.st29{fill:url(#SVGID_7_);}
	.st30{fill:url(#SVGID_8_);}
	.st31{fill:#EF037F;}
	.st32{fill:#226089;}
	.st33{fill:url(#SVGID_9_);}
	.st34{fill:url(#SVGID_10_);}
	.st35{fill:url(#SVGID_11_);}
	.st36{fill:url(#SVGID_12_);}
	.st37{fill:url(#SVGID_13_);}
	.st38{fill:url(#SVGID_14_);}
	.st39{fill:url(#SVGID_15_);}
	.st40{fill:url(#SVGID_16_);}
	.st41{fill:url(#SVGID_17_);}
	.st42{fill:url(#SVGID_18_);}
	.st43{fill:url(#SVGID_19_);}
	.st44{fill:url(#SVGID_20_);}
	.st45{fill:url(#SVGID_21_);}
	.st46{fill:url(#SVGID_22_);}
	.st47{fill:#C6CBEF;}
	.st48{fill:#E3E7F1;}
	.st49{fill:#8186D5;}
	.st50{fill:#494CA2;}
</style>
<g id="Layer_7">
	<g id="Layer_3">
		<polygon class="st0" points="1844.64,1218.24 1883.52,1218.24 1883.52,1218.24 1844.64,1218.24 		"/>
		<path class="st1" d="M1553.75,351.49c1.05,0.06,2.09,0.11,3.13,0.17V175.32h0c-39.96,0-72.36,32.4-72.36,72.36v109.56
			C1500.8,353.01,1534.36,350.37,1553.75,351.49z"/>
		<path class="st2" d="M1653.6,350.05V175.32l0,0c-39.96,0-72.36,32.4-72.36,72.36v104.94
			C1602.49,352.99,1634.76,351.51,1653.6,350.05z"/>
		<path class="st3" d="M1635.6,943.5v100.38c0,19.98-8.1,38.07-21.2,51.16c-13.09,13.1-31.18,21.2-51.16,21.2V948.63h0.02
			l72.32-5.13H1635.6z"/>
		<path class="st4" d="M1538.88,947.12v95.8c0,19.98-8.1,38.07-21.2,51.16c-13.09,13.1-31.18,21.2-51.16,21.2V946.26
			c8.17-0.47,16.63-0.72,25.32-0.67c3.93,0.02,7.9,0.1,11.92,0.24C1515.66,946.26,1527.38,946.75,1538.88,947.12z"/>
		<linearGradient id="SVGID_1_" gradientUnits="userSpaceOnUse" x1="1355.53" y1="463.9174" x2="1772.0211" y2="463.9174">
			<stop  offset="0" style="stop-color:#EEAC5A"/>
			<stop  offset="0.2999" style="stop-color:#EB733A"/>
			<stop  offset="0.6223" style="stop-color:#E93D1C"/>
			<stop  offset="0.8636" style="stop-color:#E81B09"/>
			<stop  offset="0.9944" style="stop-color:#E70E02"/>
		</linearGradient>
		<path class="st5" d="M1712.94,454.58c-18.22,14.92-50.14,19.22-84.26,20.18c-33.83,0.95-69.8-1.37-96.7,0.12
			c-37.84,2.09-87.91,40.02-62.78,82.9c3.96,6.75,10.09,11.94,16.44,16.5c6.71,4.82,13.9,8.98,22.1,10.58
			c0.07,0.01,0.13,0.03,0.2,0.04c-0.41,0.01-0.82,0.01-1.22,0.01c-6.47,0.06-12.75-0.06-18.85-0.38
			c-8.28-0.41-16.24-1.17-23.88-2.31c-0.39-0.06-0.78-0.12-1.16-0.18c-20.29-3.13-38.4-8.98-54.7-18.25
			c-0.09-0.06-0.19-0.11-0.28-0.17c-0.78-0.44-1.56-0.89-2.33-1.35c-4.04-2.42-7.97-5.06-11.78-7.92c-0.36-0.27-0.72-0.54-1.07-0.81
			c-3.71-2.84-7.1-5.83-10.18-8.87c-0.42-0.41-0.83-0.82-1.23-1.23c-10.43-10.61-17.21-21.7-21.18-29.47
			c-0.14-0.26-0.27-0.52-0.39-0.77c-2.52-5.03-3.8-8.52-4.09-9.34c-0.02-0.07-0.05-0.13-0.07-0.19c0,0,0.28-1.45,0.77-3.22
			c0.44-1.61,0,0,0.44-1.61c0.21-0.78,0.43-1.56,0.65-2.33c23.29-82.15,81.26-140,198.88-133.69c44.71,2.4,86.31,0.17,120.8-3.55
			c57.11-6.15,94.72-16.36,94.72-16.36C1774.31,375.34,1756.32,419.04,1712.94,454.58z"/>
		<linearGradient id="SVGID_2_" gradientUnits="userSpaceOnUse" x1="1384.5187" y1="906.3057" x2="1772.9489" y2="766.7152">
			<stop  offset="0" style="stop-color:#E89005"/>
			<stop  offset="1" style="stop-color:#EC7505"/>
		</linearGradient>
		<path class="st6" d="M1764.32,787.03c-0.37,2.71-0.77,5.36-1.21,7.95c-8.31,49.12-28.56,76.86-45.69,95.28
			c-51.78,55.68-128.01,49.69-213.66,46.57c-4.02-0.14-7.99-0.22-11.92-0.24c-79.83-0.44-140.27,23.74-140.27,23.74
			c-0.21-45.37,29.01-83.2,29.01-83.2c38.92-55.69,88.71-58.91,132.19-56.61h0.01c16.2,0.85,31.52,2.47,45.07,2.43
			c49.94-0.16,98.24,14.06,101.97-61.5c1.63-33.06-18.51-48.65-47.63-56.8C1711.23,702.67,1750.18,756.38,1764.32,787.03z"/>
		<linearGradient id="SVGID_3_" gradientUnits="userSpaceOnUse" x1="1374.2926" y1="571.2051" x2="1761.5974" y2="718.7852">
			<stop  offset="0" style="stop-color:#F42B03"/>
			<stop  offset="1" style="stop-color:#D84A05"/>
		</linearGradient>
		<path class="st7" d="M1764.32,787.03c1.36-9.19,2.63-29.79,2.56-39.56c-0.37-46.92-21.34-91.66-58.71-120.6
			c-25.68-19.88-57.88-31.06-90.31-31.81c-35.99-0.83-75.15,2.19-109.91-10.16c-112.44,2.25-143.62-58.4-152.41-81.22
			c-20.16,87.38,61.42,173.56,126.89,185.22c40.02,7.13,92.32,5.29,129.77,15.76C1711.23,702.67,1750.18,756.38,1764.32,787.03z"/>
		<path class="st8" d="M1487.87,584.53c-37.86-1.88-68.89-10.97-94.93-30.78c-27.64-21.04-37.41-50.08-37.41-50.08
			s0.28-1.45,0.77-3.22c0.44-1.61,0,0,0.44-1.61c0.21-0.78,1.62-5.63,1.84-6.4c0.4,0.63,9.63,30.8,37.14,54.04
			C1417.65,565,1452.3,581.25,1487.87,584.53z"/>
		<path class="st8" d="M1764.32,787.03c-0.37,2.71-0.77,5.36-1.21,7.95c-0.78,4.39-0.34,1.95-0.34,1.95
			c-15.9-30.25-37.98-53.64-63.81-67.57c-41.52-22.38-86.77-24.71-86.77-24.71C1711.23,702.67,1750.18,756.38,1764.32,787.03z"/>
		<path class="st9" d="M1712.94,454.58c-18.22,14.92-50.14,19.22-84.26,20.18c52.01-47.82,52.36-93.48,48.39-115.49
			c57.11-6.15,94.72-16.36,94.72-16.36C1774.31,375.34,1756.32,419.04,1712.94,454.58z"/>
		<path class="st10" d="M1491.84,936.58v0.01c-79.83-0.44-140.27,23.74-140.27,23.74c-0.21-45.37,29.01-83.2,29.01-83.2
			c38.92-55.69,88.71-58.91,132.19-56.61C1446.59,877.84,1491.84,936.58,1491.84,936.58z"/>
		<g id="Layer_4">
		</g>
		<g id="Layer_5">
		</g>
		<g id="Layer_6">
		</g>
	</g>
	<g id="Layer_8" class="st11">
		<text transform="matrix(1 0 0 1 965.0069 1454.0398)" class="st12 st13 st14 st15">SolusPay</text>
		<rect x="2222.52" y="175.32" class="st16" width="90.96" height="90.96"/>
		<rect x="2222.52" y="297.43" class="st17" width="90.96" height="90.96"/>
		<rect x="2222.52" y="419.54" class="st18" width="90.96" height="90.96"/>
		<rect x="2222.52" y="540.55" class="st19" width="90.96" height="90.96"/>
		<rect x="2222.52" y="661.55" class="st20" width="90.96" height="90.96"/>
		<rect x="2222.52" y="781.23" class="st21" width="90.96" height="90.96"/>
	</g>
</g>
<g id="Layer_9">
	<path class="st22" d="M1358.12,2870.31c0,121.08,98.16,219.24,219.24,219.24v-74.88c-79.73,0-144.36-64.63-144.36-144.36h74.16
		c0,38.77,31.43,70.2,70.2,70.2c38.77,0,70.2-31.43,70.2-70.2s-31.43-70.2-70.2-70.2c-38.58,0-74.83-9.97-106.32-27.46
		c-22.08-12.27-41.81-28.23-58.36-47.06c-33.96-38.61-54.56-89.26-54.56-144.72H1433c0,37.66,14.42,71.96,38.04,97.66
		c26.39,28.71,67.8,41.84,106.32,47.42c43.8,7.14,79.93,17.99,106.32,46.7c23.62,25.7,38.04,60,38.04,97.66h74.88
		c0-55.46-20.6-106.11-54.56-144.72c-16.55-18.83-36.28-34.79-58.36-47.06c-31.49-17.49-67.74-27.46-106.32-27.46
		c-38.77,0-70.2-31.43-70.2-70.2s31.43-70.2,70.2-70.2c38.77,0,70.2,31.43,70.2,70.2h74.16c0-79.73-64.63-144.36-144.36-144.36
		v-74.88c121.08,0,219.24,98.16,219.24,219.24"/>
	<path class="st23" d="M1349.12,2861.31c0,121.08,98.16,219.24,219.24,219.24v-74.88c-79.73,0-144.36-64.63-144.36-144.36h74.16
		c0,38.77,31.43,70.2,70.2,70.2c38.77,0,70.2-31.43,70.2-70.2s-31.43-70.2-70.2-70.2c-38.58,0-74.83-9.97-106.32-27.46
		c-22.08-12.27-41.81-28.23-58.36-47.06c-33.96-38.61-54.56-89.26-54.56-144.72H1424c0,37.66,14.42,71.96,38.04,97.66
		c26.39,28.71,67.8,41.84,106.32,47.42c43.8,7.14,79.93,17.99,106.32,46.7c23.62,25.7,38.04,60,38.04,97.66h74.88
		c0-55.46-20.6-106.11-54.56-144.72c-16.55-18.83-36.28-34.79-58.36-47.06c-31.49-17.49-67.74-27.46-106.32-27.46
		c-38.77,0-70.2-31.43-70.2-70.2s31.43-70.2,70.2-70.2c38.77,0,70.2,31.43,70.2,70.2h74.16c0-79.73-64.63-144.36-144.36-144.36
		v-74.88c121.08,0,219.24,98.16,219.24,219.24"/>
	<g>
		<path class="st24" d="M1165.65,3205.17c-43.95-0.59-43.48,68.44,2.7,68.67l21.56,0.23c22.62,0,33.98,14.77,33.98,30.35
			c0,18.4-10.9,33.05-30.35,33.05l-20.63-0.23c-16.99-0.35-33.98-9.02-36.68-26.72l20.63-3.87c1.76,5.27,6.8,9.38,12.66,9.84h23.79
			c13.36,0,13.13-22.73,0-22.73h-21.8c-79.69,0-77.46-108.28-6.56-108.28h23.2c26.72,0,52.5,17.93,57.07,44.41l-19.34,3.4
			c-2.46-18.75-20.98-28.13-39.38-28.13H1165.65z M1193.54,3339.82c23.55,0,32.58-16.52,32.58-35.39
			c0-16.52-11.48-32.81-36.21-32.81h-21.91c-42.42-0.47-43.13-64.57-2.58-64.34h21.33c16.99,0,33.98,9.02,36.45,26.72l-20.39,3.87
			c-1.76-5.27-6.8-9.49-12.66-9.73h-23.79c-13.36,0-13.36,22.62,0,22.62h21.8c38.44,0,58.36,26.72,58.83,53.67
			c0.23,27.19-19.69,54.61-58.24,54.61h-17.23c-26.72,0-52.5-17.93-57.54-44.41l19.8-3.4c2.46,18.87,20.98,28.36,39.38,28.36
			L1193.54,3339.82z"/>
		<path class="st24" d="M1369.79,3302.2c0,31.64-26.25,57.89-58.36,57.89c-31.64,0-57.77-26.25-57.77-57.89
			c0-32.11,26.13-58.24,57.77-58.24C1343.54,3243.96,1369.79,3270.09,1369.79,3302.2z M1348.69,3302.2
			c0-20.63-16.88-37.15-37.27-37.15c-20.16,0-36.68,16.52-36.68,37.15c0,20.16,16.52,36.8,36.68,36.8
			C1331.82,3339,1348.69,3322.36,1348.69,3302.2z M1345.77,3302.2c0,18.98-15.35,34.1-34.34,34.1c-18.75,0-34.1-15.12-34.1-34.1
			c0-18.75,15.35-34.22,34.1-34.22C1330.41,3267.98,1345.77,3283.45,1345.77,3302.2z M1324.79,3302.2c0-7.27-6.09-13.13-13.36-13.13
			c-6.8,0-13.01,5.86-13.01,13.13c0,6.91,6.21,13.13,13.01,13.13C1318.69,3315.32,1324.79,3309.11,1324.79,3302.2z"/>
		<path class="st24" d="M1397.44,3185.72v117.89c0,19.69,16.17,34.45,35.63,34.45v20.27c-29.65,0-56.02-24.49-56.02-54.73v-117.89
			H1397.44z M1420.18,3303.61c0,6.56,5.74,11.25,12.89,11.25v20.51c-17.58,0-33.16-13.83-33.16-31.76v-117.89h20.27V3303.61z"/>
		<path class="st24" d="M1531.27,3312.98c2.93,10.66,11.25,19.8,22.03,23.79v21.56c-8.09-1.99-15.35-5.51-22.03-10.66
			c-9.73,7.97-21.91,11.84-34.22,11.84c-31.41,0-56.37-25.43-56.37-56.48v-57.42h20.63v57.89c0,19.45,15.94,35.39,35.74,35.63
			C1513.46,3339.11,1526.59,3329.62,1531.27,3312.98z M1484.05,3303.25v-57.66h-20.04v57.66c0,18.28,14.77,33.28,33.05,33.28
			c18.16,0,32.93-15,32.93-33.28v-57.66h-20.16v57.66c0,7.03-5.74,12.89-12.77,12.89
			C1489.91,3316.15,1484.05,3310.05,1484.05,3303.25z M1553.3,3245.6h-20.63v57.66c0,13.59,8.2,25.9,20.63,31.05V3245.6z"/>
		<path class="st24" d="M1576.27,3299.27c-23.79-18.98-15.47-53.67,16.17-53.67h55.55v20.63h-55.55c-11.6,0-14.77,10.31-6.45,17.81
			l39.14,37.62c6.68,6.09,4.22,13.48-5.04,13.48h-57.66v-19.1h35.39C1590.69,3310.29,1583.77,3305.13,1576.27,3299.27z
			 M1562.44,3337.59h57.66c11.25,0,15-9.84,6.56-17.93l-39.26-37.38c-6.56-5.98-4.1-13.48,5.04-13.48h55.55v19.22h-31.05
			l23.09,20.27c20.04,17.93,10.08,49.92-20.39,49.92h-57.19V3337.59z"/>
		<path class="st24" d="M1773.62,3256.03v-10.08c0-22.03-17.93-39.49-39.26-39.49h-16.05c-21.33,0-39.26,17.46-39.26,39.02v112.62
			h-20.63v-112.85c0-32.58,27.42-59.3,60.12-59.3h15.59c33.16,0,60.12,27.19,60.12,60v10.08c0,33.16-26.95,60.12-60.12,60.12h-31.52
			v41.95h-20.86v-62.81h52.62C1755.69,3295.29,1773.62,3277.59,1773.62,3256.03z M1681.74,3245.95c0-19.8,15.47-37.03,36.56-37.03
			h16.05c20.16,0,36.8,16.76,36.8,37.03v10.08c0,20.16-16.64,36.56-36.8,36.56h-52.62V3245.95z M1750.06,3245.95
			c0-9.02-7.15-16.17-15.7-16.17h-16.05c-8.67,0-15.7,7.15-15.7,16.17v26.02h31.76c8.55,0,15.7-7.27,15.7-15.94V3245.95z"/>
		<path class="st24" d="M1847.56,3338.41c6.09,0,11.72-1.41,17.34-4.34c3.4,5.86,8.32,11.13,13.83,15.82
			c-9.26,5.63-19.45,9.02-31.17,9.02c-30.47,0-57.3-25.08-57.3-57.07c0-31.76,25.55-57.3,57.3-57.3c31.52,0,57.07,25.55,57.07,57.3
			v32.46c-13.59-5.39-20.98-18.05-20.98-32.46c0-20.04-16.05-36.33-36.09-36.33c-20.27,0-36.33,16.29-36.33,36.33
			C1811.23,3322.36,1827.76,3338.41,1847.56,3338.41z M1847.56,3288.96c7.27,0,13.13,6.09,12.66,13.36
			c-0.47,26.6,18.87,50.74,44.41,56.6V3337c-15.12-5.39-23.44-19.57-23.44-35.16c0-18.52-14.88-33.63-33.63-33.63
			c-18.98,0-33.87,15.12-33.87,33.63c0,18.98,15.59,33.63,33.87,33.63c5.86,0,11.25-1.41,15.82-3.87
			c-3.4-6.56-5.63-13.95-6.56-20.98c-1.99,2.93-5.63,4.34-9.26,4.34c-7.03,0-12.89-5.86-12.89-13.13
			C1834.67,3295.05,1840.53,3288.96,1847.56,3288.96z"/>
		<path class="st24" d="M2004.83,3316.5v34.22c0,18.4-16.05,33.87-33.87,33.87v-20.27c8.32,0,12.19-3.52,14.77-7.03
			c-4.45,1.41-9.38,2.23-14.06,2.23c-31.17,0-56.13-25.78-56.13-56.72v-57.19h20.39v57.42c0,19.92,16.05,35.51,35.74,35.51
			C1987.13,3338.76,1999.67,3329.5,2004.83,3316.5z M1958.89,3303.02v-57.42h-20.27v57.42c0,18.4,14.65,33.4,33.05,33.4
			s33.16-15.23,33.16-33.4v-57.42h-20.39v57.42c0,6.91-5.39,12.77-12.77,12.77C1964.51,3315.79,1958.89,3309.93,1958.89,3303.02z
			 M1970.96,3387.51v20.39c30,0,56.95-25.55,56.95-56.25V3245.6h-20.51v105.35C2007.41,3370.99,1990.76,3387.51,1970.96,3387.51z"/>
	</g>
</g>
<g id="Layer_10">
	<g>
		<g>
			<path class="st25" d="M-2320.65,3115.49c-5.18,0-10.37-1.13-15.1-3.39l-115.37-55.15c-12.09-5.78-19.91-18.17-19.91-31.58v-72.45
				c0-18.97,16.03-35,35-35s35,16.03,35,35v50.39l80.37,38.42l80.37-38.42v-115.82l-196.07-1.87c-16.74-0.16-34.67-14.26-34.67-35
				v-342.1c0-12.85,7.7-25.39,19.15-31.21l115.37-58.59c9.48-4.82,22.22-4.81,31.7,0l115.37,58.59
				c11.46,5.82,19.15,18.36,19.15,31.21v83.6c0,18.97-16.03,35-35,35s-35-16.03-35-35V2530l-80.37-40.82l-80.37,40.82v285.96
				l196.07,1.87c20.74,0.2,34.67,18.26,34.67,35v172.55c0,13.4-7.81,25.8-19.9,31.58l-115.37,55.15
				C-2310.28,3114.36-2315.46,3115.49-2320.65,3115.49z M-2436.02,2932.92c-10.84,0-20,9.16-20,20v72.45
				c0,7.54,4.57,14.79,11.37,18.04l115.37,55.15c5.32,2.54,11.93,2.54,17.25,0l115.37-55.15c6.8-3.25,11.37-10.5,11.37-18.04
				v-172.55c0-9.35-8.47-19.89-19.81-20l-210.93-2.01v-310.02l95.37-48.43l95.37,48.43v71.33c0,10.84,9.16,20,20,20s20-9.16,20-20
				v-83.6c0-7.23-4.5-14.56-10.94-17.83l-115.37-58.59c-5.95-3.02-13.61-2.29-18.11,0l-115.37,58.59
				c-6.44,3.27-10.94,10.61-10.94,17.83v342.1c0,11.34,10.46,19.91,19.81,20l210.93,2.01v140.13l-95.37,45.59l-95.37-45.59v-59.84
				C-2416.02,2942.08-2425.18,2932.92-2436.02,2932.92z"/>
			<linearGradient id="SVGID_4_" gradientUnits="userSpaceOnUse" x1="-2472.5195" y1="2756.2891" x2="-2186.7813" y2="2756.2891">
				<stop  offset="0" style="stop-color:#268723"/>
				<stop  offset="1" style="stop-color:#38598B"/>
			</linearGradient>
			<path class="st26" d="M-2241.78,2583.12v-66.72l-87.87-44.63l-87.87,44.63v297.99l203.5,1.94c15.72,0.15,27.24,14.2,27.24,27.5
				v172.55c0,10.53-6.3,20.34-15.64,24.81l-115.37,55.15c-7.47,3.57-16.4,3.5-23.72,0l-115.37-55.15
				c-9.5-4.54-15.64-14.46-15.64-24.81v-72.45c0-14.98,12.52-27.5,27.5-27.5s27.5,12.52,27.5,27.5v55.12l87.87,42l87.87-42v-127.98
				l-203.5-1.94c-13.3-0.13-27.24-11.78-27.24-27.5v-342.1c0-9.7,5.74-19.79,15.05-24.52l115.37-58.59c6.69-3.4,16.88-4.08,24.9,0
				l115.37,58.59c8.65,4.39,15.05,14.08,15.05,24.52v83.6c0,14.98-12.52,27.5-27.5,27.5S-2241.78,2598.1-2241.78,2583.12z"/>
		</g>
		<g>
			<path class="st25" d="M-1957.67,3118.78c-5.56,0-11.11-1.2-15.85-3.61l-115.37-58.59c-11.46-5.82-19.15-18.36-19.15-31.21
				v-364.82c0-12.85,7.7-25.39,19.15-31.21l115.37-58.59c9.48-4.82,22.22-4.82,31.7,0l115.37,58.59
				c11.46,5.82,19.15,18.36,19.15,31.21v364.82c0,12.85-7.7,25.39-19.15,31.21l-115.37,58.59
				C-1946.56,3117.58-1952.11,3118.78-1957.67,3118.78z M-1957.79,2582.13c-3.02,0-6.17,0.59-8.93,2l-115.37,58.59
				c-6.44,3.27-10.94,10.61-10.94,17.83v364.82c0,7.23,4.5,14.56,10.94,17.83l115.37,58.59c4.5,2.29,12.17,3.02,18.11,0
				l115.37-58.59c6.44-3.27,10.94-10.61,10.94-17.83v-364.82c0-7.23-4.5-14.56-10.94-17.83l-115.37-58.59
				C-1951.01,2582.91-1954.32,2582.13-1957.79,2582.13z M-1957.66,3061.53l-95.37-48.43v-340.27l95.37-48.43l95.37,48.43v340.27
				L-1957.66,3061.53z M-2038.03,3003.89l80.37,40.82l80.37-40.82v-321.86l-80.37-40.82l-80.37,40.82V3003.89z"/>
			<linearGradient id="SVGID_5_" gradientUnits="userSpaceOnUse" x1="-2109.5342" y1="2833.9622" x2="-1823.796" y2="2833.9622">
				<stop  offset="0" style="stop-color:#226089"/>
				<stop  offset="1" style="stop-color:#38598B"/>
			</linearGradient>
			<path class="st27" d="M-1838.84,2627.03c9.31,4.73,15.05,14.82,15.05,24.52v364.82c0,10.44-6.4,20.13-15.05,24.52l-115.37,58.59
				c-8.02,4.07-18.21,3.4-24.9,0l-115.37-58.59c-9.31-4.73-15.05-14.82-15.05-24.52v-364.82c0-10.44,6.4-20.13,15.05-24.52
				l115.37-58.59c8.02-4.08,18.21-3.4,24.9,0L-1838.84,2627.03z M-2054.53,2668.43v331.06l87.87,44.63l87.87-44.63v-331.06
				l-87.87-44.63L-2054.53,2668.43z"/>
		</g>
		<g>
			<path class="st25" d="M-1591.62,3118.91c-5.39,0-10.72-1.26-15.61-3.74l-115.37-58.59c-11.46-5.82-19.15-18.36-19.15-31.21
				v-548.2c0-18.97,16.03-35,35-35s35,16.03,35,35v526.72l96.22,48.86c8.25,4.19,14.4,11.42,17.32,20.38
				c2.92,8.96,2.23,18.43-1.96,26.67c-4.19,8.25-11.43,14.4-20.38,17.32C-1584.2,3118.32-1587.93,3118.91-1591.62,3118.91z
				 M-1706.75,2457.17c-10.84,0-20,9.16-20,20v548.2c0,7.23,4.5,14.56,10.94,17.83l115.37,58.59c4.67,2.37,10.08,2.76,15.23,1.08
				c5.15-1.68,9.29-5.18,11.66-9.85c2.37-4.67,2.76-10.08,1.08-15.23c-1.68-5.15-5.18-9.29-9.85-11.66l-104.43-53.03v-535.92
				C-1686.75,2466.33-1695.91,2457.17-1706.75,2457.17z"/>
			<linearGradient id="SVGID_6_" gradientUnits="userSpaceOnUse" x1="-1743.2506" y1="2771.5327" x2="-1572.9502" y2="2771.5327">
				<stop  offset="0" style="stop-color:#226089"/>
				<stop  offset="1" style="stop-color:#38598B"/>
			</linearGradient>
			<path class="st28" d="M-1612.83,3099.48l-115.37-58.59c-9.31-4.73-15.05-14.82-15.05-24.52v-548.2c0-14.98,12.52-27.5,27.5-27.5
				s27.5,12.52,27.5,27.5v531.32l100.32,50.95c13.35,6.78,18.85,23.62,12.07,36.97S-1599.48,3106.26-1612.83,3099.48z"/>
		</g>
		<g>
			<path class="st25" d="M-1360.38,3118.78c-5.56,0-11.11-1.2-15.85-3.61l-115.37-58.59c-11.46-5.82-19.15-18.36-19.15-31.21
				v-422.25c0-18.97,16.03-35,35-35s35,16.03,35,35v400.77l80.37,40.82l80.37-40.82v-400.77c0-18.97,16.03-35,35-35s35,16.03,35,35
				v422.25c0,12.85-7.7,25.39-19.15,31.21l-115.37,58.59C-1349.27,3117.58-1354.83,3118.78-1360.38,3118.78z M-1475.75,2583.12
				c-10.84,0-20,9.16-20,20v422.25c0,7.23,4.5,14.56,10.94,17.83l115.37,58.59c4.5,2.29,12.17,3.02,18.11,0l115.37-58.59
				c6.44-3.27,10.94-10.61,10.94-17.83v-422.25c0-10.84-9.16-20-20-20s-20,9.16-20,20v409.98l-95.37,48.43l-95.37-48.43v-409.98
				C-1455.75,2592.28-1464.91,2583.12-1475.75,2583.12z"/>
			<linearGradient id="SVGID_7_" gradientUnits="userSpaceOnUse" x1="-1512.2521" y1="2834.4539" x2="-1226.5138" y2="2834.4539">
				<stop  offset="0" style="stop-color:#226089"/>
				<stop  offset="1" style="stop-color:#38598B"/>
			</linearGradient>
			<path class="st29" d="M-1226.51,2594.12v422.25c0,10.44-6.4,20.13-15.05,24.52l-115.37,58.59c-8.02,4.07-18.21,3.4-24.9,0
				l-115.37-58.59c-9.31-4.73-15.05-14.82-15.05-24.52v-422.25c0-14.98,12.52-27.5,27.5-27.5s27.5,12.52,27.5,27.5v405.38
				l87.87,44.63l87.87-44.63v-405.38c0-14.98,12.52-27.5,27.5-27.5S-1226.51,2579.14-1226.51,2594.12z"/>
		</g>
		<g>
			<path class="st25" d="M-995.2,3115.49c-5.18,0-10.37-1.13-15.1-3.39l-115.37-55.15c-12.09-5.78-19.91-18.17-19.91-31.58v-54.85
				c0-18.97,16.03-35,35-35s35,16.03,35,35v32.79l80.37,38.42l80.64-38.55l1.47-116.52h-196.66c-16.83,0-34.91-14-35-34.85
				l-0.82-191.11c-0.06-12.91,7.64-25.51,19.15-31.36l115.37-58.59c9.48-4.82,22.22-4.81,31.7,0l115.37,58.59
				c11.46,5.82,19.15,18.36,19.15,31.21v59.16c0,18.97-16.03,35-35,35s-35-16.03-35-35v-37.68l-80.37-40.82l-80.28,40.77
				l0.58,134.67h197.25c9.06,0,17.7,3.69,24.31,10.38c6.8,6.89,10.8,16.26,10.69,25.06l-2.19,173.71
				c-0.16,13.01-8.16,25.52-19.9,31.14l-115.37,55.15C-984.83,3114.36-990.01,3115.49-995.2,3115.49z M-1110.57,2950.52
				c-10.84,0-20,9.16-20,20v54.85c0,7.54,4.57,14.79,11.37,18.04l115.37,55.15c5.32,2.54,11.93,2.54,17.25,0l115.37-55.15
				c6.71-3.21,11.28-10.36,11.37-17.79l2.19-173.71c0.06-4.73-2.44-10.35-6.36-14.33c-2.67-2.7-7.2-5.92-13.63-5.92h-212.19
				l-0.68-158.86l95.32-48.41l95.37,48.43v46.89c0,10.84,9.16,20,20,20s20-9.16,20-20v-59.16c0-7.23-4.5-14.56-10.94-17.83
				l-115.37-58.59c-5.95-3.02-13.61-2.29-18.11,0l-115.37,58.59c-6.47,3.29-10.97,10.66-10.94,17.92l0.82,191.11
				c0.05,11.4,10.6,19.91,20,19.91h211.85l-1.78,141.03l-95.53,45.66l-95.37-45.59v-42.25
				C-1090.57,2959.68-1099.73,2950.52-1110.57,2950.52z"/>
			<linearGradient id="SVGID_8_" gradientUnits="userSpaceOnUse" x1="-1147.0682" y1="2832.3076" x2="-859.1445" y2="2832.3076">
				<stop  offset="0" style="stop-color:#226089"/>
				<stop  offset="1" style="stop-color:#38598B"/>
			</linearGradient>
			<path class="st30" d="M-916.33,2710.72v-42.29l-87.87-44.63l-87.8,44.59l0.63,146.77h204.72c16.53,0,27.65,15.4,27.5,27.85
				l-2.19,173.71c-0.13,10.48-6.61,20.15-15.64,24.46l-115.37,55.15c-7.47,3.57-16.4,3.5-23.72,0l-115.37-55.15
				c-9.5-4.54-15.64-14.46-15.64-24.81v-54.85c0-14.98,12.52-27.5,27.5-27.5s27.5,12.52,27.5,27.5v37.52l87.87,42l88.09-42.11
				l1.62-128.77h-204.25c-13.56,0-27.43-11.71-27.5-27.38l-0.82-191.11c-0.04-9.81,5.73-19.9,15.05-24.64l115.37-58.59
				c6.69-3.4,16.88-4.08,24.9,0l115.37,58.59c8.65,4.39,15.05,14.08,15.05,24.52v59.16c0,14.98-12.52,27.5-27.5,27.5
				C-903.81,2738.22-916.33,2725.7-916.33,2710.72z"/>
		</g>
	</g>
</g>
<g id="Layer_11">
	<g id="Layer_12">
		<path class="st11" d="M-2083.91,948.61c0-1.84-0.25-3.81-0.37-5.65c-0.49-5.4-1.23-10.92-2.21-16.2
			c-0.12-0.49-0.12-0.98-0.24-1.47c-0.37-2.58-0.86-5.15-1.47-7.73c-0.62-2.95-1.35-5.89-2.09-8.84c-0.73-2.95-1.59-5.77-2.45-8.71
			s-1.84-5.77-2.82-8.59c-1.35-3.92-2.82-7.85-4.42-11.66c-1.59-3.68-3.19-7.36-4.91-11.04c-1.23-2.45-2.45-4.91-3.92-7.36
			c-1.72-3.19-3.44-6.38-5.28-9.45c-1.1-2.08-2.33-4.05-3.56-6.02c-0.74-1.1-1.35-2.21-2.2-3.19c-1.23-1.96-2.58-3.92-3.93-5.89
			c-2.2-3.19-4.66-6.38-7.11-9.45c-0.13-0.24-0.24-0.37-0.37-0.49c-1.97-2.45-4.05-5.03-6.26-7.48c-0.74-0.86-1.47-1.6-2.09-2.33
			c-5.03-5.52-10.18-10.92-15.59-15.71c-1.47-1.35-2.94-2.58-4.42-3.92c-1.72-1.6-3.67-3.07-5.52-4.54
			c-3.81-3.19-7.73-6.13-11.78-8.96c-1.97-1.35-3.93-2.7-6.02-3.92c-1.72-1.23-3.56-2.45-5.4-3.44c-0.74-0.49-1.35-0.98-2.08-1.23
			c-2.46-1.6-4.9-3.07-7.49-4.29c-2.94-1.72-5.89-3.31-8.96-4.66c-3.67-1.84-7.48-3.56-11.29-5.15c-3.81-1.6-7.61-3.07-11.53-4.42
			c-8.59-3.19-17.42-5.65-26.51-7.61c-1.96-0.49-4.04-0.86-6.01-1.23c-2.33-0.49-4.66-0.86-6.88-1.1c-2.46-0.49-4.79-0.86-7.24-0.98
			c-2.46-0.37-5.04-0.74-7.61-0.86c-3.06-0.37-6.26-0.49-9.45-0.61c-3.31-0.13-6.38-0.24-9.7-0.24h-475.37
			c-39.15,0-71.18-31.04-72.4-70.07v-1.6c0-37.79,28.83-69.08,65.78-72.89c2.2-0.24,4.42-0.37,6.63-0.37h486.17
			c5.28,0.77,10.38,1.1,15.24,1.23h180.66c-0.1-0.4-0.19-0.8-0.29-1.23c-21.71-62.34-70.92-111.91-133.01-134.25
			c-23.19-8.47-48.35-13-74.49-13h-473.41c-3.19,0-6.38,0.13-9.57,0.24c-3.18,0.13-6.37,0.24-9.44,0.61
			c-2.58,0.13-5.16,0.49-7.61,0.86c-2.46,0.13-4.79,0.49-7.25,0.98c-2.2,0.24-4.54,0.61-6.86,1.1c-1.97,0.37-4.05,0.74-6.02,1.23
			c-9.08,1.96-17.92,4.42-26.51,7.61c-3.92,1.35-7.73,2.82-11.53,4.42c-3.81,1.59-7.61,3.31-11.29,5.15
			c-3.06,1.35-6.01,2.95-8.95,4.66c-2.58,1.22-5.04,2.7-7.49,4.29c-0.74,0.24-1.35,0.74-2.08,1.23c-1.85,0.98-3.68,2.21-5.4,3.44
			c-2.08,1.22-4.04,2.58-6.01,3.92c-4.05,2.82-7.97,5.77-11.78,8.96c-1.84,1.47-3.8,2.95-5.52,4.54c-1.47,1.35-2.95,2.58-4.42,3.92
			c-6.13,5.52-12.02,11.66-17.67,18.04c-2.21,2.45-4.29,5.03-6.26,7.49c-0.12,0.13-0.24,0.24-0.37,0.49
			c-2.46,3.07-4.9,6.26-7.11,9.45c-2.08,2.95-4.17,6.02-6.13,9.08c-4.66,7.24-8.83,14.85-12.76,22.83
			c-1.72,3.68-3.31,7.36-4.91,11.04c-1.59,3.81-3.06,7.73-4.41,11.66c-0.99,2.82-1.97,5.65-2.83,8.59
			c-1.72,5.77-3.31,11.66-4.54,17.55c-0.61,2.58-1.1,5.15-1.47,7.73c-1.1,5.77-1.84,11.66-2.45,17.67
			c-0.13,1.84-0.37,3.81-0.37,5.65c-0.25,1.84-0.37,3.81-0.37,5.76c-0.13,3.07-0.24,6.26-0.24,9.45
			c0,115.96,89.82,210.94,203.57,219.16c5.28,0.37,10.68,0.61,16.07,0.61h475.38c2.21,0,4.54,0.13,6.75,0.37
			c34.6,3.56,62.09,31.29,65.41,65.89c0.24,2.33,0.37,4.66,0.37,7c0,1.97-0.13,3.92-0.37,5.89c0.12,0.12,0.12,0.24,0,0.37
			c-0.13,1.72-0.38,3.56-0.74,5.28c0,0.74-0.13,1.47-0.38,2.21c-0.24,1.47-0.61,2.95-0.98,4.29c-0.49,1.97-1.11,3.92-1.85,5.77
			c-0.49,1.6-1.1,3.31-1.84,4.79c0,0.24-0.13,0.49-0.37,0.74c-0.62,1.59-1.35,3.07-2.08,4.42c-0.37,0.74-0.86,1.47-1.23,2.21
			c-0.86,1.47-1.84,2.95-2.7,4.29c-2.82,4.05-6.01,7.73-9.45,11.17c-1.88,1.88-3.99,3.52-6.08,5.18
			c-12.32,9.52-27.72,15.19-44.48,15.19h-384.83h-106.27h-191.67c21.84,62.71,71.42,112.53,134.12,134.73
			c22.95,8.1,47.62,12.52,73.26,12.52c0.13,0,474.64,0,474.76,0c3.2,0,6.26-0.13,9.45-0.24c2.21-0.13,4.3-0.24,6.5-0.37
			c4.17-0.24,8.22-0.74,12.27-1.23c6.26-0.74,12.4-1.84,18.4-3.19c7.74-1.6,15.22-3.68,22.46-6.13c1.35-0.37,2.7-0.86,4.05-1.35
			c1.35-0.49,2.58-0.98,3.8-1.47c3.19-1.1,6.38-2.45,9.45-3.81c6.5-2.7,12.76-5.77,18.78-9.08c2.82-1.6,5.65-3.19,8.34-4.91
			c2.33-1.35,4.66-2.82,6.88-4.29c1.23-0.74,2.46-1.6,3.56-2.45c2.2-1.35,4.29-2.95,6.38-4.54c22.09-16.2,40.87-36.57,55.47-59.76
			c1.96-3.19,3.92-6.38,5.77-9.7c0.49-0.61,0.87-1.35,1.11-2.08c1.72-3.07,3.31-6.26,4.91-9.45c0.12-0.12,0.12-0.24,0.24-0.37
			c1.72-3.68,3.31-7.49,4.91-11.17c2.82-6.5,5.28-13.25,7.24-20.25c0.62-1.72,1.11-3.44,1.47-5.15c0.74-1.97,1.23-4.05,1.72-6.02
			c0.61-2.7,1.23-5.27,1.72-7.97c0.49-2.21,0.98-4.42,1.35-6.63c0.12-0.61,0.24-1.23,0.24-1.96c0.49-2.58,0.86-5.15,1.23-7.73
			s0.61-5.27,0.98-7.97c0.13-1.97,0.25-3.92,0.38-5.89c0.37-4.79,0.49-9.7,0.49-14.6c0-3.31-0.13-6.5-0.25-9.57
			C-2083.54,952.42-2083.67,950.45-2083.91,948.61z"/>
		<path class="st31" d="M-1416.17,743.61v45.56c61.17,16.84,113.08,56.01,146.39,108.22V743.61c0-23.7-3.63-46.43-10.8-67.82
			h-181.32C-1435.06,686.67-1416.17,713-1416.17,743.61z"/>
		<path class="st32" d="M-2037.33,1000.56v-45.56c-61.17-16.84-113.08-56.01-146.39-108.22v153.79c0,23.7,3.63,46.43,10.8,67.82
			h181.32C-2018.45,1057.49-2037.33,1031.16-2037.33,1000.56z"/>
		<linearGradient id="SVGID_9_" gradientUnits="userSpaceOnUse" x1="-2171.4592" y1="1024.5945" x2="-1269.7813" y2="1024.5945">
			<stop  offset="0" style="stop-color:#226089"/>
			<stop  offset="1" style="stop-color:#EF037F"/>
		</linearGradient>
		<path class="st33" d="M-1270.03,1008.7c0-1.95-0.13-3.92-0.37-5.76c0-1.84-0.25-3.81-0.37-5.65c-0.49-5.4-1.23-10.92-2.21-16.2
			c-0.12-0.49-0.12-0.98-0.24-1.47c-0.37-2.58-0.86-5.15-1.47-7.73c-0.62-2.95-1.35-5.89-2.09-8.84c-0.73-2.95-1.59-5.77-2.45-8.71
			s-1.84-5.77-2.82-8.59c-1.35-3.92-2.82-7.85-4.42-11.66c-1.59-3.68-3.19-7.36-4.91-11.04c-1.23-2.45-2.45-4.91-3.92-7.36
			c-1.72-3.19-3.44-6.38-5.28-9.45c-1.1-2.08-2.33-4.05-3.56-6.02c-0.74-1.1-1.35-2.21-2.2-3.19c-1.23-1.96-2.58-3.92-3.93-5.89
			c-2.2-3.19-4.66-6.38-7.11-9.45c-0.13-0.24-0.24-0.37-0.37-0.49c-1.97-2.45-4.05-5.03-6.26-7.48c-0.74-0.86-1.47-1.6-2.09-2.33
			c-5.03-5.52-10.18-10.92-15.59-15.71c-1.47-1.35-2.94-2.58-4.42-3.92c-1.72-1.6-3.67-3.07-5.52-4.54
			c-3.81-3.19-7.73-6.13-11.78-8.96c-1.97-1.35-3.93-2.7-6.02-3.92c-1.72-1.23-3.56-2.45-5.4-3.44c-0.74-0.49-1.35-0.98-2.08-1.23
			c-2.46-1.6-4.9-3.07-7.49-4.29c-2.94-1.72-5.89-3.31-8.96-4.66c-3.67-1.84-7.48-3.56-11.29-5.15c-3.8-1.6-7.6-3.07-11.52-4.41
			v207.87c0,1.97-0.13,3.92-0.37,5.89c0.12,0.12,0.12,0.24,0,0.37c-0.13,1.72-0.38,3.56-0.74,5.28c0,0.74-0.13,1.47-0.38,2.21
			c-0.24,1.47-0.61,2.95-0.98,4.29c-0.49,1.97-1.11,3.92-1.85,5.77c-0.49,1.6-1.1,3.31-1.84,4.79c0,0.24-0.13,0.49-0.37,0.74
			c-0.62,1.59-1.35,3.07-2.08,4.42c-0.37,0.74-0.86,1.47-1.23,2.21c-0.86,1.47-1.84,2.95-2.7,4.29c-2.82,4.05-6.01,7.73-9.45,11.17
			c-1.88,1.88-3.99,3.52-6.08,5.18c-12.32,9.52-27.72,15.19-44.48,15.19h-384.83h-106.27h-191.67
			c21.84,62.71,71.42,112.53,134.12,134.73c22.95,8.1,47.62,12.52,73.26,12.52c0.13,0,474.64,0,474.76,0c3.2,0,6.26-0.13,9.45-0.24
			c2.21-0.13,4.3-0.24,6.5-0.37c4.17-0.24,8.22-0.74,12.27-1.23c6.26-0.74,12.4-1.84,18.4-3.19c7.74-1.6,15.22-3.68,22.46-6.13
			c1.35-0.37,2.7-0.86,4.05-1.35c1.35-0.49,2.58-0.98,3.8-1.47c3.19-1.1,6.38-2.45,9.45-3.81c6.5-2.7,12.76-5.77,18.78-9.08
			c2.82-1.6,5.65-3.19,8.34-4.91c2.33-1.35,4.66-2.82,6.88-4.29c1.23-0.74,2.46-1.6,3.56-2.45c2.2-1.35,4.29-2.95,6.38-4.54
			c22.09-16.2,40.87-36.57,55.47-59.76c1.96-3.19,3.92-6.38,5.77-9.7c0.49-0.61,0.87-1.35,1.11-2.08c1.72-3.07,3.31-6.26,4.91-9.45
			c0.12-0.12,0.12-0.24,0.24-0.37c1.72-3.68,3.31-7.49,4.91-11.17c2.82-6.5,5.28-13.25,7.24-20.25c0.62-1.72,1.11-3.44,1.47-5.15
			c0.74-1.97,1.23-4.05,1.72-6.02c0.61-2.7,1.23-5.27,1.72-7.97c0.49-2.21,0.98-4.42,1.35-6.63c0.12-0.61,0.24-1.23,0.24-1.96
			c0.49-2.58,0.86-5.15,1.23-7.73s0.61-5.27,0.98-7.97c0.13-1.97,0.25-3.92,0.38-5.89c0.37-4.79,0.49-9.7,0.49-14.6
			C-1269.78,1014.96-1269.91,1011.77-1270.03,1008.7z"/>
		<linearGradient id="SVGID_10_" gradientUnits="userSpaceOnUse" x1="-1956.5662" y1="580.569" x2="-1282.8799" y2="580.569">
			<stop  offset="0" style="stop-color:#226089"/>
			<stop  offset="0.0607" style="stop-color:#504B87"/>
			<stop  offset="0.1332" style="stop-color:#803584"/>
			<stop  offset="0.2054" style="stop-color:#A82382"/>
			<stop  offset="0.276" style="stop-color:#C71581"/>
			<stop  offset="0.3445" style="stop-color:#DD0B80"/>
			<stop  offset="0.41" style="stop-color:#EA057F"/>
			<stop  offset="0.4693" style="stop-color:#EF037F"/>
		</linearGradient>
		<path class="st34" d="M-1956.57,653.58h477.79c5.28,0.77,10.38,1.1,15.24,1.23h180.66c-0.1-0.4-0.19-0.8-0.29-1.23
			c-21.71-62.34-70.92-111.91-133.01-134.25c-23.19-8.47-48.35-13-74.49-13h-465.89V653.58z"/>
		<linearGradient id="SVGID_11_" gradientUnits="userSpaceOnUse" x1="-2183.72" y1="736.8281" x2="-1438.1663" y2="736.8281">
			<stop  offset="0" style="stop-color:#226089"/>
			<stop  offset="1" style="stop-color:#EF037F"/>
		</linearGradient>
		<path class="st35" d="M-1448.69,802.3c-2.33-0.49-4.66-0.86-6.88-1.1c-2.46-0.49-4.79-0.86-7.24-0.98
			c-2.46-0.37-5.04-0.74-7.61-0.86c-3.06-0.37-6.26-0.49-9.45-0.61c-3.31-0.13-6.38-0.24-9.7-0.24h-475.37
			c-39.15,0-71.18-31.04-72.4-70.07v-1.6c0-35,24.74-64.41,57.74-71.59V506.87c-1.18,0.08-2.34,0.18-3.49,0.31
			c-2.58,0.13-5.16,0.49-7.61,0.86c-2.46,0.13-4.79,0.49-7.25,0.98c-2.2,0.24-4.54,0.61-6.86,1.1c-1.97,0.37-4.05,0.74-6.02,1.23
			c-9.08,1.96-17.92,4.42-26.51,7.61c-3.92,1.35-7.73,2.82-11.53,4.42c-3.81,1.59-7.61,3.31-11.29,5.15
			c-3.06,1.35-6.01,2.95-8.95,4.66c-2.58,1.22-5.04,2.7-7.49,4.29c-0.74,0.24-1.35,0.74-2.08,1.23c-1.85,0.98-3.68,2.21-5.4,3.44
			c-2.08,1.22-4.04,2.58-6.01,3.92c-4.05,2.82-7.97,5.77-11.78,8.96c-1.84,1.47-3.8,2.95-5.52,4.54c-1.47,1.35-2.95,2.58-4.42,3.92
			c-6.13,5.52-12.02,11.66-17.67,18.04c-2.21,2.45-4.29,5.03-6.26,7.49c-0.12,0.13-0.24,0.24-0.37,0.49
			c-2.46,3.07-4.9,6.26-7.11,9.45c-2.08,2.95-4.17,6.02-6.13,9.08c-4.66,7.24-8.83,14.85-12.76,22.83
			c-1.72,3.68-3.31,7.36-4.91,11.04c-1.59,3.81-3.06,7.73-4.41,11.66c-0.99,2.82-1.97,5.65-2.83,8.59
			c-1.72,5.77-3.31,11.66-4.54,17.55c-0.61,2.58-1.1,5.15-1.47,7.73c-1.1,5.77-1.84,11.66-2.45,17.67
			c-0.13,1.84-0.37,3.81-0.37,5.65c-0.25,1.84-0.37,3.81-0.37,5.76c-0.13,3.07-0.24,6.26-0.24,9.45
			c0,115.96,89.82,210.94,203.57,219.16c5.28,0.37,10.68,0.61,16.07,0.61h475.38c2.21,0,4.54,0.13,6.75,0.37
			c16.98,1.75,32.24,9.32,43.77,20.67V804.56c-1.5-0.36-3.01-0.7-4.52-1.03C-1444.64,803.04-1446.73,802.67-1448.69,802.3z"/>
	</g>
	<g>
		<linearGradient id="SVGID_12_" gradientUnits="userSpaceOnUse" x1="-2225.7002" y1="1445.4363" x2="-2102.6533" y2="1445.4363">
			<stop  offset="0" style="stop-color:#226089"/>
			<stop  offset="1" style="stop-color:#EF037F"/>
		</linearGradient>
		<path class="st36" d="M-2190.54,1383.91h87.89v17.58h-87.89c-4.86,0-9.01,1.71-12.44,5.14s-5.14,7.57-5.14,12.44
			c0,4.86,1.71,9.01,5.14,12.44s7.57,5.14,12.44,5.14h52.73c9.73,0,18.02,3.43,24.87,10.28s10.28,15.15,10.28,24.87
			c0,9.73-3.43,18.02-10.28,24.87s-15.15,10.28-24.87,10.28h-87.89v-17.58h87.89c4.86,0,9.01-1.71,12.44-5.14s5.14-7.57,5.14-12.44
			c0-4.86-1.71-9.01-5.14-12.44s-7.57-5.14-12.44-5.14h-52.73c-9.73,0-18.02-3.43-24.87-10.28s-10.28-15.15-10.28-24.87
			c0-9.73,3.43-18.02,10.28-24.87S-2200.27,1383.91-2190.54,1383.91z"/>
		<linearGradient id="SVGID_13_" gradientUnits="userSpaceOnUse" x1="-2085.0752" y1="1445.4363" x2="-1962.0284" y2="1445.4363">
			<stop  offset="0" style="stop-color:#226089"/>
			<stop  offset="1" style="stop-color:#EF037F"/>
		</linearGradient>
		<path class="st37" d="M-1980.05,1401.93c12.01,12.01,18.02,26.51,18.02,43.51c0,16.99-6.01,31.5-18.02,43.51
			c-12.01,12.01-26.51,18.02-43.51,18.02c-16.99,0-31.49-6.01-43.51-18.02c-12.01-12.01-18.02-26.51-18.02-43.51
			c0-16.99,6.01-31.49,18.02-43.51c12.01-12.01,26.51-18.02,43.51-18.02C-2006.56,1383.91-1992.06,1389.92-1980.05,1401.93z
			 M-2023.55,1401.49c-12.13,0-22.49,4.29-31.07,12.88c-8.58,8.58-12.88,18.94-12.88,31.07s4.29,22.49,12.88,31.07
			c8.58,8.58,18.94,12.88,31.07,12.88s22.48-4.29,31.07-12.88c8.58-8.58,12.88-18.94,12.88-31.07s-4.29-22.49-12.88-31.07
			C-2001.07,1405.78-2011.42,1401.49-2023.55,1401.49z"/>
		<linearGradient id="SVGID_14_" gradientUnits="userSpaceOnUse" x1="-1944.4503" y1="1445.4363" x2="-1821.4034" y2="1445.4363">
			<stop  offset="0" style="stop-color:#226089"/>
			<stop  offset="1" style="stop-color:#EF037F"/>
		</linearGradient>
		<path class="st38" d="M-1882.93,1489.38h61.52v17.58h-61.52c-16.99,0-31.5-6.01-43.51-18.02c-12.01-12.01-18.02-26.51-18.02-43.51
			v-61.52h17.58v61.52c0,12.13,4.29,22.49,12.88,31.07C-1905.41,1485.09-1895.06,1489.38-1882.93,1489.38z"/>
		<linearGradient id="SVGID_15_" gradientUnits="userSpaceOnUse" x1="-1803.8253" y1="1445.4363" x2="-1680.7784" y2="1445.4363">
			<stop  offset="0" style="stop-color:#226089"/>
			<stop  offset="1" style="stop-color:#EF037F"/>
		</linearGradient>
		<path class="st39" d="M-1803.83,1445.44v-61.52h17.58v61.52c0,12.13,4.29,22.49,12.88,31.07c8.58,8.58,18.94,12.88,31.07,12.88
			s22.48-4.29,31.07-12.88c8.58-8.58,12.88-18.94,12.88-31.07v-61.52h17.58v61.52c0,16.99-6.01,31.5-18.02,43.51
			c-12.01,12.01-26.51,18.02-43.51,18.02c-16.99,0-31.5-6.01-43.51-18.02C-1797.82,1476.93-1803.83,1462.43-1803.83,1445.44z"/>
		<linearGradient id="SVGID_16_" gradientUnits="userSpaceOnUse" x1="-1663.2003" y1="1445.4363" x2="-1540.1534" y2="1445.4363">
			<stop  offset="0" style="stop-color:#226089"/>
			<stop  offset="1" style="stop-color:#EF037F"/>
		</linearGradient>
		<path class="st40" d="M-1628.04,1383.91h87.89v17.58h-87.89c-4.86,0-9.01,1.71-12.44,5.14s-5.14,7.57-5.14,12.44
			c0,4.86,1.71,9.01,5.14,12.44s7.57,5.14,12.44,5.14h52.73c9.73,0,18.02,3.43,24.87,10.28s10.28,15.15,10.28,24.87
			c0,9.73-3.43,18.02-10.28,24.87s-15.15,10.28-24.87,10.28h-87.89v-17.58h87.89c4.86,0,9.01-1.71,12.44-5.14s5.14-7.57,5.14-12.44
			c0-4.86-1.71-9.01-5.14-12.44s-7.57-5.14-12.44-5.14h-52.73c-9.73,0-18.02-3.43-24.87-10.28s-10.28-15.15-10.28-24.87
			c0-9.73,3.43-18.02,10.28-24.87S-1637.77,1383.91-1628.04,1383.91z"/>
		<linearGradient id="SVGID_17_" gradientUnits="userSpaceOnUse" x1="-1522.5753" y1="1445.4363" x2="-1399.5284" y2="1445.4363">
			<stop  offset="0" style="stop-color:#226089"/>
			<stop  offset="1" style="stop-color:#EF037F"/>
		</linearGradient>
		<path class="st41" d="M-1434.68,1401.49h-87.89v-17.58h87.89c9.73,0,18.02,3.43,24.87,10.28s10.28,15.15,10.28,24.87
			c0,9.73-3.43,18.02-10.28,24.87s-15.15,10.28-24.87,10.28H-1505v52.73h-17.58v-87.89h17.58v17.58h70.31
			c4.86,0,9.01-1.71,12.44-5.14s5.14-7.57,5.14-12.44c0-4.86-1.71-9.01-5.14-12.44S-1429.82,1401.49-1434.68,1401.49z"/>
		<linearGradient id="SVGID_18_" gradientUnits="userSpaceOnUse" x1="-1381.9503" y1="1445.4363" x2="-1258.9034" y2="1445.4363">
			<stop  offset="0" style="stop-color:#226089"/>
			<stop  offset="1" style="stop-color:#EF037F"/>
		</linearGradient>
		<path class="st42" d="M-1258.9,1445.44v61.52h-17.58v-61.52c0-12.13-4.29-22.49-12.88-31.07c-8.58-8.58-18.94-12.88-31.07-12.88
			s-22.49,4.29-31.07,12.88c-8.58,8.58-12.88,18.94-12.88,31.07v17.58h70.31v17.58h-70.31v26.37h-17.58v-61.52
			c0-16.99,6.01-31.49,18.02-43.51c12.01-12.01,26.51-18.02,43.51-18.02c16.99,0,31.49,6.01,43.51,18.02
			C-1264.91,1413.94-1258.9,1428.44-1258.9,1445.44z"/>
		<linearGradient id="SVGID_19_" gradientUnits="userSpaceOnUse" x1="-1241.3253" y1="1445.4363" x2="-1118.2784" y2="1445.4363">
			<stop  offset="0" style="stop-color:#226089"/>
			<stop  offset="1" style="stop-color:#EF037F"/>
		</linearGradient>
		<path class="st43" d="M-1241.33,1392.7v-8.79h17.58v8.79c0,12.13,4.29,22.49,12.88,31.07c8.58,8.58,18.94,12.88,31.07,12.88
			s22.48-4.29,31.07-12.88c8.58-8.58,12.88-18.94,12.88-31.07v-8.79h17.58v8.79c0,16.99-6.01,31.5-18.02,43.51
			c-9.9,9.9-21.48,15.73-34.72,17.49v53.26h-17.58v-53.26c-13.24-1.76-24.82-7.59-34.72-17.49
			C-1235.32,1424.2-1241.33,1409.7-1241.33,1392.7z"/>
	</g>
	<linearGradient id="SVGID_20_" gradientUnits="userSpaceOnUse" x1="-642.24" y1="298.5397" x2="-448.6006" y2="298.5397">
		<stop  offset="0" style="stop-color:#226089"/>
		<stop  offset="1" style="stop-color:#EF037F"/>
	</linearGradient>
	<rect x="-642.24" y="201.72" class="st44" width="193.64" height="193.64"/>
	<rect x="-642.24" y="437.43" class="st31" width="193.64" height="193.64"/>
	<rect x="-642.24" y="673.14" class="st32" width="193.64" height="193.64"/>
	<linearGradient id="SVGID_21_" gradientUnits="userSpaceOnUse" x1="-642.24" y1="1005.6765" x2="-448.6006" y2="1005.6765">
		<stop  offset="0" style="stop-color:#226089;stop-opacity:0.5"/>
		<stop  offset="0.3976" style="stop-color:#793985;stop-opacity:0.5"/>
		<stop  offset="0.8111" style="stop-color:#CD1281;stop-opacity:0.5"/>
		<stop  offset="1" style="stop-color:#EF037F;stop-opacity:0.5"/>
	</linearGradient>
	<rect x="-642.24" y="908.86" class="st45" width="193.64" height="193.64"/>
	<linearGradient id="SVGID_22_" gradientUnits="userSpaceOnUse" x1="-642.24" y1="1241.3888" x2="-448.6006" y2="1241.3888">
		<stop  offset="0" style="stop-color:#226089"/>
		<stop  offset="1" style="stop-color:#EF037F"/>
	</linearGradient>
	<rect x="-642.24" y="1144.57" class="st46" width="193.64" height="193.64"/>
</g>
<g id="Layer_13">
	<g id="Layer_14">
		<path class="st47" d="M-4816.51,720.6c-26,13.91-229.77,129.33-123.24,277.32c-22.84-29.82-34.26-64.39-34.26-103.71
			c0-48.03,17.03-89.09,51.13-123.19C-4892.84,740.98-4857.38,724.17-4816.51,720.6z"/>
		<path class="st47" d="M-4782.05,1040.78c26-13.91,229.77-129.33,123.24-277.32c22.84,29.82,34.26,64.39,34.26,103.71
			c0,48.03-17.03,89.09-51.13,123.19C-4705.72,1020.4-4741.18,1037.21-4782.05,1040.78z"/>
		<path class="st48" d="M-4799.7,487.46h406.73v232.42h-406.73c-48.03,0-89.09,17.05-123.19,51.14s-51.13,75.16-51.13,123.19
			c0,44.94,14.91,83.67,44.73,116.2h-261.47c-10.47-36.41-15.69-75.14-15.69-116.2c0-112.34,39.7-208.22,119.11-287.63
			C-5007.92,527.18-4912.04,487.46-4799.7,487.46z"/>
		<path class="st48" d="M-4799.7,1273.95h-406.73v-232.42h406.73c48.03,0,89.08-17.03,123.17-51.13s51.14-75.16,51.14-123.19
			c0-44.94-14.92-83.67-44.73-116.22h261.47c10.45,36.42,15.69,75.16,15.69,116.22c0,112.34-39.72,208.22-119.13,287.63
			S-4687.37,1273.95-4799.7,1273.95z"/>
		<path class="st49" d="M-4929.28,1010.42c-185.77-243.08,47.06-430.18,226.34-523.06c-22.95-0.11-61.74,0.11-80.11,0.11
			C-5041.76,487.46-5089.82,814.27-4929.28,1010.42z"/>
		<path class="st50" d="M-4782.53,487.46c-140.02,63.26-319.45,311.97-146.75,522.95h-262.26c0,0-75.88-200.49,84.09-383.28
			C-5001.92,506.56-4893.74,484.72-4782.53,487.46z"/>
		<path class="st49" d="M-4669.76,750.88c185.77,243.08-34.62,430.18-213.9,523.06c22.95,0.11,43.65,0.11,62.01,0.11
			C-4562.93,1274.06-4509.22,947.03-4669.76,750.88z"/>
		<path class="st50" d="M-4816.88,1274.02c140.02-63.26,319.81-312.15,147.12-523.13h262.26c0,0,75.88,200.49-84.09,383.28
			C-4597.12,1254.74-4705.66,1276.76-4816.88,1274.02z"/>
	</g>
	
		<text transform="matrix(1 0 0 1 -5158.4297 1506.9596)" class="st50" style="font-family:'HandsOversaturation'; font-size:180px;">Solus pay</text>
	<rect x="-3814.56" y="550.88" class="st50" width="144.72" height="144.72"/>
	<rect x="-3814.56" y="725.76" class="st49" width="144.72" height="144.72"/>
	<rect x="-3814.56" y="900.64" class="st47" width="144.72" height="144.72"/>
	<rect x="-3814.56" y="1075.52" class="st48" width="144.72" height="144.72"/>
</g>
</svg>
